<svg xmlns="http://www.w3.org/2000/svg" width="260" height="260" viewBox="0 0 260 260">
  <g fill="#ffffff">
    <rect x="14"  y="18"  width="70"  height="6" rx="3"/>
    <rect x="14"  y="34"  width="118" height="6" rx="3"/>
    <rect x="34"  y="50"  width="86"  height="6" rx="3"/>
    <rect x="34"  y="66"  width="52"  height="6" rx="3"/>
    <rect x="14"  y="82"  width="30"  height="6" rx="3"/>
    <rect x="14"  y="106" width="96"  height="6" rx="3"/>
    <rect x="34"  y="122" width="140" height="6" rx="3"/>
    <rect x="54"  y="138" width="70"  height="6" rx="3"/>
    <rect x="34"  y="154" width="44"  height="6" rx="3"/>
    <rect x="14"  y="170" width="20"  height="6" rx="3"/>
    <rect x="14"  y="194" width="108" height="6" rx="3"/>
    <rect x="34"  y="210" width="64"  height="6" rx="3"/>
    <rect x="34"  y="226" width="128" height="6" rx="3"/>
    <rect x="14"  y="242" width="46"  height="6" rx="3"/>
  </g>
</svg>
